<svg xmlns="http://www.w3.org/2000/svg"
     xml:space="preserve"
     width="1500"
     height="353"
     data-id="lg_1qV1yGaP9zk0r4H7TD"
     data-version="1"
     viewBox="0 0 1500 353">
    <g data-padding="20">
        <g transform="translate(10 6.281)scale(.96441)">
            <rect width="560"
                  height="87.01"
                  x="85.721"
                  y="-266.861"
                  fill="none"
                  rx="0"
                  ry="0"
                  transform="translate(400.5 492.92)" />
            <path fill="#ffffff"
                  d="M489.751 240.194h31.65l-.77 5.85h-11.78v47.2h-7.01v-47.2h-12.09Zm37.96 0h24.33l-.77 5.62h-16.55v17.63h14.4v5.63h-14.4v18.55h17.63v5.62h-24.64Zm64.54 53.05h-7.16l-3.16-13.47h-15.86l-3.16 13.47h-6.93l13.78-53.05h8.71Zm-18.25-47.2-6.62 28.11h13.24Zm19.7-5.85h31.65l-.77 5.85h-11.78v47.2h-7.01v-47.2h-12.09Zm48.28 0q9.32 0 14.13 4.16t4.81 12.24q0 8.63-4.89 12.82-4.89 4.2-13.9 4.2h-3.46v19.63h-7.01v-53.05Zm.15 27.87q5.93 0 8.71-2.5 2.77-2.5 2.77-8.89 0-5.78-2.81-8.36t-8.67-2.58h-3.46v22.33Zm46.44-7.76h-4.78l-.92-20.1h6.62Zm13.86 0h-4.78l-.92-20.1h6.62Zm15.09-20.1h25.56v53.05h-7.01v-47.12h-12.32l-2.23 24.02q-.85 9.24-2.19 13.83-1.35 4.58-3.35 6.5-2 1.93-6.09 3.7l-1.69-5.47q2.16-1.23 3.23-2.73 1.08-1.5 1.85-5.12t1.47-11.01Zm68.45-.01v53.05h-6.93v-26.1q0-9.62.92-19.02l-16.32 45.12h-8.85v-53.05h6.93v26.18q0 10.01-.93 19.1l16.33-45.28Zm27.87-.85q3.78 0 6.63 1.27t5.69 3.89l-3.61 4.24q-2.16-1.93-4.16-2.81-2-.89-4.39-.89-11.32 0-11.32 21.64 0 21.56 11.55 21.56 2.62 0 4.58-1.04t4.04-2.97l3.78 4.09q-2.31 2.54-5.47 4.19-3.16 1.66-7.08 1.66-8.55 0-13.67-6.93t-5.12-20.56q0-9.16 2.42-15.29 2.43-6.12 6.63-9.08 4.19-2.97 9.5-2.97m14.72.85h31.65l-.77 5.85h-11.78v47.2h-7.01v-47.2h-12.09Zm54.28-.85q8.77 0 13.7 6.82 4.93 6.81 4.93 20.6 0 13.62-4.93 20.52-4.93 6.89-13.7 6.89-8.78 0-13.75-6.78-4.96-6.77-4.96-20.56 0-13.63 5-20.56 5.01-6.93 13.71-6.93m0 5.7q-5.55 0-8.43 5.08-2.89 5.09-2.89 16.71 0 11.55 2.92 16.56 2.93 5 8.4 5 5.54 0 8.39-4.96 2.85-4.97 2.85-16.67 0-11.63-2.85-16.67-2.85-5.05-8.39-5.05m27.96-4.85h30.88v53.05h-7.01v-47.04h-16.86v47.04h-7.01Zm73.61 53.05h-7.16l-3.16-13.47h-15.86l-3.16 13.47h-6.93l13.79-53.05h8.7Zm-18.25-47.2-6.62 28.11h13.24Zm51.75 41.43h3.61v17.25h-5.16l-1-11.48h-24.17l-1 11.48h-5.16v-17.25h2.31q2.23-2.93 3.23-6.78t1.77-12.24l2.7-28.26h22.87Zm-6.93 0v-41.5h-9.71l-2.15 22.79q-.54 5.77-1.27 9.16t-1.77 5.47-2.89 4.08Zm22.62-27.17h-4.77l-.92-20.1h6.62Zm13.86 0h-4.77l-.92-20.1h6.62Z" />
            <rect width="252.617"
                  height="23.73"
                  x="239.413"
                  y="-235.221"
                  fill="none"
                  rx="0"
                  ry="0"
                  transform="translate(400.51 564.48)" />
            <path fill="#ffffff"
                  d="M653.821 347.714h-8.11v-14.66h8.11v1.47h-6.43v5.04h6.03v1.47h-6.03v5.21h6.43Zm3.08.01h-1.74l3.57-5.52-3.42-5.31h1.8l2.42 3.94h.21l2.45-3.94h1.75l-3.4 5.25 3.5 5.58h-1.8l-2.5-4.24h-.21Zm8.85 4.18v-15.03h1.6v1.76h.21q.31-1.07 1.02-1.54.7-.48 1.71-.48.97 0 1.7.4.74.4 1.24 1.14.5.73.76 1.78.25 1.05.25 2.35 0 1.31-.25 2.36-.26 1.05-.76 1.78-.5.74-1.24 1.13-.73.4-1.7.4-1.01 0-1.71-.47-.71-.47-1.02-1.54h-.21v5.96Zm4.06-5.37q1.32 0 2.01-.83.7-.83.7-2.32v-2.19q0-1.49-.7-2.32-.69-.83-2.01-.83-.51 0-.96.15t-.78.42q-.32.27-.52.65t-.2.84v4.37q0 .46.2.84t.52.65q.33.27.78.42t.96.15m10.38 1.43q-.94 0-1.76-.31-.82-.32-1.41-1.01t-.92-1.76q-.34-1.07-.34-2.59 0-1.51.34-2.58.33-1.07.92-1.76.59-.7 1.41-1.01.82-.32 1.76-.32.95 0 1.73.32.79.31 1.34 1.01.54.69.85 1.76.3 1.07.3 2.58v.4h-6.95v.7q0 1.59.73 2.38.72.79 2 .79 1.09 0 1.79-.48.69-.47 1.09-1.41l1.09.79q-.5 1.12-1.48 1.81t-2.49.69m0-9.99q-1.3 0-2.01.82-.72.82-.72 2.41v.27h5.25v-.27q0-3.23-2.52-3.23m8.04 9.75h-1.59v-10.83h1.59v2.01h.21q.28-.94.94-1.48.66-.53 1.73-.53h.59v1.61h-1.05q-1.13 0-1.78.51-.64.5-.64 1.51Zm5.93-13.47q-.99 0-.99-.86v-.34q0-.86.99-.86.98 0 .98.86v.34q0 .86-.98.86m-.8 13.46v-10.83h1.59v10.83Zm8.24.25q-.94 0-1.76-.31-.82-.32-1.41-1.01t-.92-1.76q-.34-1.07-.34-2.59 0-1.51.34-2.58.33-1.07.92-1.76.59-.7 1.41-1.01.82-.32 1.76-.32.95 0 1.73.32.79.31 1.34 1.01.54.69.85 1.76.3 1.07.3 2.58v.4h-6.95v.7q0 1.59.72 2.38.73.79 2.01.79 1.09 0 1.79-.48.69-.47 1.09-1.41l1.09.79q-.5 1.12-1.48 1.81t-2.49.69m0-9.99q-1.3 0-2.02.82-.71.82-.71 2.41v.27h5.25v-.27q0-3.23-2.52-3.23m8.03 9.74h-1.59v-10.83h1.59v1.76h.21q.32-1.01.98-1.51.66-.51 1.8-.51 1.44 0 2.27.99t.83 3.05v7.05h-1.59v-6.95q0-1.3-.54-1.99-.53-.7-1.65-.7-.96 0-1.63.59-.68.59-.68 1.66Zm12.5.25q-2.02 0-3.16-1.32-1.15-1.32-1.15-4.35 0-3.02 1.15-4.34 1.14-1.33 3.16-1.33 1.53 0 2.44.71.92.7 1.34 1.79l-1.32.67q-.28-.84-.87-1.29-.58-.45-1.59-.45-1.32 0-1.95.78t-.63 2.37v2.19q0 1.59.63 2.37t1.95.78q1.05 0 1.69-.47.64-.46 1.02-1.4l1.17.82q-.48 1.13-1.46 1.8-.97.67-2.42.67m9.27 0q-.95 0-1.76-.31-.82-.32-1.41-1.01t-.93-1.76q-.33-1.07-.33-2.59 0-1.51.33-2.58.34-1.07.93-1.76.59-.7 1.41-1.01.81-.32 1.76-.32.94 0 1.73.32.79.31 1.34 1.01.54.69.85 1.76.3 1.07.3 2.58v.4h-6.95v.7q0 1.59.72 2.38.73.79 2.01.79 1.09 0 1.78-.48.7-.47 1.1-1.41l1.09.79q-.51 1.12-1.48 1.81-.98.69-2.49.69m0-9.99q-1.3 0-2.02.82-.71.82-.71 2.41v.27h5.25v-.27q0-3.23-2.52-3.23m14.78 9.74h-1.95q-.86 0-1.25-.39t-.39-1.25v-7.79h-1.59v-1.4h.94q.48 0 .64-.25.16-.24.16-.72v-2.02h1.45v2.99h2.1v1.4h-2.1v8.02h1.99Zm2.28 0v-15.54h1.6v6.47h.21q.31-1.01.97-1.51.67-.51 1.8-.51 1.45 0 2.28.99t.83 3.05v7.05h-1.6v-6.95q0-1.3-.53-1.99-.54-.7-1.65-.7-.97 0-1.64.59t-.67 1.66v7.39Zm14.22.25q-.95 0-1.76-.31-.82-.32-1.41-1.01t-.93-1.76q-.33-1.07-.33-2.59 0-1.51.33-2.58.34-1.07.93-1.76.59-.7 1.41-1.01.81-.32 1.76-.32.94 0 1.73.32.79.31 1.34 1.01.54.69.85 1.76.3 1.07.3 2.58v.4h-6.95v.7q0 1.59.72 2.38.73.79 2.01.79 1.09 0 1.78-.48.7-.47 1.1-1.41l1.09.79q-.51 1.12-1.48 1.81-.98.69-2.49.69m0-9.99q-1.3 0-2.02.82-.71.82-.71 2.41v.27h5.25v-.27q0-3.23-2.52-3.23m18.63 9.74h-1.14q-1.55 0-1.55-1.55v-.21h-.21q-.27.98-1 1.5-.72.51-1.73.51-1.58 0-2.35-.79-.78-.8-.78-2.36 0-1.51 1-2.39.99-.88 3.12-.88h1.95v-1.2q0-1.2-.54-1.76-.53-.57-1.69-.57-.94 0-1.52.41t-1 1.19l-.94-.89q.42-.88 1.34-1.48.93-.6 2.19-.6 1.84 0 2.8.9.95.89.95 2.63v6.13h1.1Zm-5.23-1.13q.54 0 1.02-.19.47-.19.8-.49.34-.31.53-.7t.19-.81v-1.63h-2q-1.26 0-1.83.42-.58.42-.58 1.21v.59q0 .82.5 1.21.51.39 1.37.39m8.73 1.14h-1.59v-10.83h1.59v2.01h.21q.28-.94.94-1.48.66-.53 1.73-.53h.59v1.61h-1.05q-1.14 0-1.78.51-.64.5-.64 1.51Zm9.53-.01h-1.96q-.86 0-1.25-.39-.38-.39-.38-1.25v-7.79h-1.6v-1.4h.94q.49 0 .64-.25.16-.24.16-.72v-2.02h1.45v2.99h2.1v1.4h-2.1v8.02h2Zm10.17.25q-.94 0-1.76-.31-.82-.32-1.41-1.01t-.92-1.76q-.34-1.07-.34-2.59 0-1.51.34-2.58.33-1.07.92-1.76.59-.7 1.41-1.01.82-.32 1.76-.32.95 0 1.77.32.81.31 1.4 1.01.59.69.93 1.76.33 1.07.33 2.58 0 1.52-.33 2.59-.34 1.07-.93 1.76t-1.4 1.01q-.82.31-1.77.31m0-1.42q1.3 0 2.01-.78.7-.78.7-2.37v-2.19q0-1.59-.7-2.37-.71-.78-2.01-.78t-2 .78q-.71.78-.71 2.37v2.19q0 1.59.71 2.37.7.78 2 .78m7.1 1.17v-9.43h-1.58v-1.4h1.58v-2.65q0-1.07.49-1.56.5-.5 1.57-.5h1.61v1.41h-2.07v3.3h2.07v1.4h-2.07v9.43Zm13.3.25q-.94 0-1.76-.31-.82-.32-1.41-1.01t-.92-1.76q-.34-1.07-.34-2.59 0-1.51.34-2.58.33-1.07.92-1.76.59-.7 1.41-1.01.82-.32 1.76-.32.95 0 1.73.32.79.31 1.34 1.01.54.69.85 1.76.3 1.07.3 2.58v.4h-6.95v.7q0 1.59.73 2.38.72.79 2 .79 1.09 0 1.79-.48.69-.47 1.09-1.41l1.09.79q-.5 1.12-1.48 1.81t-2.49.69m0-9.99q-1.3 0-2.01.82-.72.82-.72 2.41v.27h5.25v-.27q0-3.23-2.52-3.23m8.04 9.74h-1.6v-10.83h1.6v1.76h.21q.31-1.01.92-1.51.61-.51 1.72-.51 1.01 0 1.71.5.71.49 1.06 1.52h.21q.34-1.01 1.05-1.51.72-.51 1.89-.51 1.39 0 2.23.99t.84 3.05v7.05h-1.6v-6.95q0-1.3-.51-1.99-.52-.7-1.59-.7-.94 0-1.58.59t-.64 1.66v7.39h-1.6v-6.95q0-1.3-.51-1.99-.52-.7-1.59-.7-.94 0-1.58.59t-.64 1.66Zm18.37.25q-.94 0-1.76-.31-.82-.32-1.41-1.01t-.92-1.76q-.34-1.07-.34-2.59 0-1.51.34-2.58.33-1.07.92-1.76.59-.7 1.41-1.01.82-.32 1.76-.32.95 0 1.76.32.82.31 1.41 1.01.59.69.93 1.76.33 1.07.33 2.58 0 1.52-.33 2.59-.34 1.07-.93 1.76t-1.41 1.01q-.81.31-1.76.31m0-1.42q1.3 0 2.01-.78.7-.78.7-2.37v-2.19q0-1.59-.7-2.37-.71-.78-2.01-.78t-2.01.78q-.7.78-.7 2.37v2.19q0 1.59.7 2.37.71.78 2.01.78m10.71 1.17h-1.95q-.86 0-1.25-.39t-.39-1.25v-7.79h-1.6v-1.4h.95q.48 0 .64-.25.16-.24.16-.72v-2.02h1.45v2.99h2.1v1.4h-2.1v8.02h1.99Zm3.1-13.46q-.99 0-.99-.86v-.34q0-.86.99-.86.98 0 .98.86v.34q0 .86-.98.86m-.8 13.46v-10.83h1.6v10.83Zm8.22.25q-.94 0-1.76-.31-.82-.32-1.41-1.01t-.92-1.76q-.34-1.07-.34-2.59 0-1.51.34-2.58.33-1.07.92-1.76.59-.7 1.41-1.01.82-.32 1.76-.32.95 0 1.77.32.81.31 1.4 1.01.59.69.93 1.76.33 1.07.33 2.58 0 1.52-.33 2.59-.34 1.07-.93 1.76t-1.4 1.01q-.82.31-1.77.31m0-1.42q1.3 0 2.01-.78.7-.78.7-2.37v-2.19q0-1.59-.7-2.37-.71-.78-2.01-.78t-2 .78q-.71.78-.71 2.37v2.19q0 1.59.71 2.37.7.78 2 .78m8.23 1.17h-1.59v-10.83h1.59v1.76h.21q.32-1.01.98-1.51.66-.51 1.8-.51 1.44 0 2.27.99t.83 3.05v7.05h-1.59v-6.95q0-1.3-.54-1.99-.53-.7-1.65-.7-.96 0-1.63.59-.68.59-.68 1.66Z" />
            <path id="leave1"
                  fill="#f44336"
                  d="M716.121 43.344c-29.665 0-52.71 31.313-52.71 32.615 0 1.345 23.045 32.702 52.71 32.702s52.687-31.335 52.687-32.702c0-1.324-23.045-32.637-52.688-32.637m0 5.317h.955c6.185.238 12.152 2.994 16.47 7.595 4.123 4.405 6.293 10.069 6.076 15.884a20.83 20.83 0 0 1-6.727 14.496 18.88 18.88 0 0 1-13.736 5.12 18 18 0 0 1-12.369-5.945 15.84 15.84 0 0 1-4.1-11.566 14.76 14.76 0 0 1 5.055-10.177 13.02 13.02 0 0 1 9.44-3.147c3.103.26 5.967 1.823 7.942 4.232 1.736 2.126 2.54 4.687 2.235 7.247a8.68 8.68 0 0 1-3.298 5.794c-1.085.803-2.843 1.67-5.1 1.302a5.64 5.64 0 0 1-3.624-2.387 3.26 3.26 0 0 1-.456-2.777c.152-.586.717-1.302 1.237-1.52q.217-.064.304 0a3.034 3.034 0 1 0 3.038-5.25 6.3 6.3 0 0 0-5.664-.326 8.68 8.68 0 0 0-4.774 5.512 9.33 9.33 0 0 0 1.237 7.638 11.5 11.5 0 0 0 7.704 5.078 12.6 12.6 0 0 0 9.721-2.41 14.54 14.54 0 0 0 5.686-9.96 15.62 15.62 0 0 0-3.537-11.782 17.8 17.8 0 0 0-12.152-6.402c-5.013-.434-9.982 1.194-13.91 4.579a20.83 20.83 0 0 0-7.14 14.387c-.368 5.816 1.628 11.5 5.643 15.993a23.87 23.87 0 0 0 16.58 7.942c6.64.326 13.062-2.083 18.118-6.727a27.016 27.016 0 0 0 5.165-33.288 97.7 97.7 0 0 1 19.747 18.228c-5.73 6.944-24.326 27.342-45.787 27.342-21.375 0-40.015-20.42-45.744-27.385 5.707-6.944 24.304-27.342 45.765-27.342" />
            <path id="leave2"
                  fill="#f44336"
                  d="M825.163.074c-13.064.477-30.38 3.798-42.185 15.602-20.962 20.963-15.06 59.372-14.105 60.326.933.934 39.342 6.836 60.326-14.105a45.6 45.6 0 0 0 8.246-11.305L829.2 192.336c-.087 1.476 1.172 2.886 2.647 2.973 1.498.065 2.908-1.194 2.973-2.67l9.744-169.693c.824-11.74-.738-21.006-1.194-21.483-.434-.39-8.029-1.758-18.206-1.39m2.17 5.947c4.687-.065 8.636.217 11.132.434.868 8.962 2.17 36.456-12.998 51.646-15.125 15.125-42.75 13.866-51.712 12.998-.868-8.962-2.17-36.456 13.02-51.646l.651-.738a23.87 23.87 0 0 1 17.035-6.228 21.7 21.7 0 0 1 15.537 6.9 20.83 20.83 0 0 1 5.49 15.017 19.1 19.1 0 0 1-6.076 13.368 17.8 17.8 0 0 1-12.933 4.535 15.84 15.84 0 0 1-11.067-5.273 14.76 14.76 0 0 1-3.646-10.785 13.02 13.02 0 0 1 4.45-8.897 11.5 11.5 0 0 1 8.614-2.604 9.55 9.55 0 0 1 6.683 3.559c1.433 1.78 2.105 4.123 1.802 6.38a6.5 6.5 0 0 1-2.69 4.535c-1.195.868-2.887 1.193-4.298.89-1.063-.217-1.736-.782-2.235-1.628-.304-.542-.434-1.41-.217-1.953.065-.174.13-.174.217-.217a3.038 3.038 0 0 0-1.562-5.86c-1.953.52-3.429 1.889-4.232 3.799a8.68 8.68 0 0 0 .521 7.27 9.33 9.33 0 0 0 6.25 4.47c3.06.65 6.444 0 9.048-1.867a12.37 12.37 0 0 0 5.122-8.55 14.54 14.54 0 0 0-2.973-11.067 15.62 15.62 0 0 0-10.85-5.86 17.8 17.8 0 0 0-13.129 4.08 18.66 18.66 0 0 0-6.553 13.086 20.83 20.83 0 0 0 5.143 15.212 21.7 21.7 0 0 0 15.298 7.378c6.337.347 12.63-1.953 17.317-6.185a24.96 24.96 0 0 0 8.094-17.533 26.93 26.93 0 0 0-7.14-19.38 27.56 27.56 0 0 0-12.78-7.811c5.576-1.085 10.98-1.432 15.688-1.475" />
            <rect width="65.946"
                  height="45.2"
                  x="332.748"
                  y="-245.956"
                  fill="none"
                  rx="0"
                  ry="0"
                  transform="translate(236.97 387.34)" />
            <path fill="#ffffff"
                  d="M587.621 176.554h-14.2v-29.4h12.88v3.92h-8.44v8.12h6.8v4h-6.8v9.4h9.76Zm11.28.4q-1.68 0-3.32-.42t-2.92-1.04-1.92-1.26l2.12-3.8q.44.36 1.38.94t2.18 1.02 2.48.44q2.04 0 3.42-.96t1.38-2.8q0-1.52-.8-2.52t-2.1-1.76-2.8-1.46-2.86-1.58q-1.56-1.04-2.72-2.76t-1.16-4.44q0-2.68 1.22-4.4t3.24-2.58 4.42-.86q1.92 0 3.28.4t2.28.96 1.44 1l-2.12 3.64q-.68-.72-2.04-1.34t-3.04-.62q-1.96 0-3.12.9t-1.16 2.66q0 1.56 1.04 2.66t2.66 2 3.34 1.82 3.04 2.16q1.08.96 1.84 2.4t.76 3.24q0 2.72-1.26 4.6t-3.38 2.82-4.8.94m24.28-.4h-4.44v-25.48h-7.52v-3.92h19.56v3.92h-7.6Zm12.48.4q-1.2 0-2.04-.82t-.84-2.02q0-1.24.82-2.06t2.06-.82q1.28 0 2.08.82t.8 2.06q0 1.2-.82 2.02t-2.06.82" />
            <rect width="88.305"
                  height="39.55"
                  x="321.568"
                  y="-243.131"
                  fill="none"
                  rx="0"
                  ry="0"
                  transform="translate(554.41 387.41)" />
            <path fill="#ffffff"
                  d="M896.891 175.044h-17.5l8.65-10.82q.7-.91 1.59-2.22t1.58-2.73q.68-1.42.68-2.64 0-1.93-1.03-2.98-1.04-1.05-3.1-1.05-1.44 0-2.42.63t-1.59 1.47-.96 1.51l-3.26-1.75q.67-1.26 1.74-2.54 1.06-1.28 2.67-2.15 1.61-.88 3.92-.88 2.66 0 4.45.95 1.78.94 2.68 2.59.89 1.64.89 3.74 0 2.24-1.1 4.59-1.11 2.34-3.1 4.79l-4.76 6.02h9.97Zm13.08.52q-2.55 0-4.34-1.05-1.78-1.05-2.9-2.88-1.12-1.84-1.63-4.27-.51-2.44-.51-5.17 0-2.83.49-5.25.49-2.41 1.58-4.21 1.08-1.81 2.89-2.82 1.8-1.02 4.42-1.02 3.5 0 5.53 1.72 2.03 1.71 2.93 4.71.89 2.99.89 6.87 0 3.75-.93 6.79-.93 3.05-2.97 4.82-2.05 1.76-5.45 1.76m0-3.57q1.58 0 2.58-.84.99-.84 1.54-2.27.54-1.44.75-3.17t.21-3.52q0-1.96-.21-3.71t-.75-3.11q-.55-1.37-1.54-2.15-1-.79-2.58-.79-1.57 0-2.59.79-1.01.78-1.55 2.15-.55 1.36-.76 3.11t-.21 3.71q0 1.79.21 3.52t.76 3.15q.54 1.42 1.55 2.28 1.02.85 2.59.85m29.97 3.05h-17.5l8.65-10.82q.7-.91 1.59-2.22t1.58-2.73q.68-1.42.68-2.64 0-1.93-1.03-2.98-1.04-1.05-3.1-1.05-1.44 0-2.42.63t-1.59 1.47-.96 1.51l-3.26-1.75q.67-1.26 1.74-2.54 1.06-1.28 2.67-2.15 1.61-.88 3.92-.88 2.66 0 4.45.95 1.78.94 2.68 2.59.89 1.64.89 3.74 0 2.24-1.1 4.59-1.11 2.34-3.1 4.79l-4.76 6.02h9.97Zm17.95.01h-4.1v-6.44h-11.76l7.39-20.16 3.64 1.36-5.57 15.12h6.3l.21-5.84h3.89v5.84h3.57v3.68h-3.57Z" />
        </g>
    </g>
</svg>