<svg width="101" height="108" viewBox="0 0 101 108" fill="none" xmlns="http://www.w3.org/2000/svg">
<path d="M27.9276 23.147C12.2101 23.147 0 39.7958 0 40.4881C0 41.2032 12.2101 57.8755 27.9276 57.8755C43.6452 57.8755 55.8431 41.2149 55.8431 40.4881C55.8431 39.7841 43.6331 23.1353 27.9271 23.1353M27.9271 25.9623H28.4331C31.7102 26.0888 34.8717 27.5542 37.1595 30.0005C39.344 32.3426 40.4938 35.3541 40.3788 38.4459C40.2591 41.3884 38.9765 44.1619 36.8146 46.1533C34.853 48.0073 32.2291 48.9888 29.5368 48.8755C27.022 48.7317 24.6661 47.5954 22.9832 45.7146C21.4652 44.0409 20.6822 41.8246 20.8109 39.5651C20.9483 37.475 21.9126 35.5268 23.4892 34.154C24.8699 32.9538 26.6687 32.352 28.4909 32.4808C30.135 32.619 31.6524 33.4501 32.6988 34.7309C33.6186 35.8613 34.0446 37.223 33.883 38.5841C33.7324 39.8035 33.1035 40.9122 32.1356 41.6647C31.5607 42.0917 30.6293 42.5527 29.4335 42.357C28.6504 42.2079 27.9591 41.7509 27.5133 41.0878C27.2143 40.6577 27.1255 40.1148 27.2717 39.6113C27.3522 39.2998 27.6516 38.9191 27.9271 38.8032C28.0038 38.7805 28.0575 38.7805 28.0882 38.8032C28.5862 39.1113 29.2116 39.1236 29.7212 38.8353C30.2309 38.547 30.5442 38.0036 30.5393 37.4166C30.5344 36.8296 30.2121 36.2915 29.6978 36.0118C28.7815 35.4797 27.6679 35.4154 26.6968 35.8384C25.4658 36.3953 24.5409 37.467 24.1674 38.7691C23.7898 40.1542 24.0289 41.6355 24.8228 42.8302C25.7482 44.2625 27.2282 45.2414 28.9047 45.5301C30.7242 45.8355 32.5885 45.3717 34.0552 44.2488C35.74 42.9723 36.8291 41.058 37.0679 38.9531C37.3234 36.6956 36.6461 34.4317 35.1938 32.6887C33.5879 30.7354 31.2688 29.5093 28.7552 29.2848C26.0992 29.0541 23.4664 29.9196 21.3852 31.7194C19.1559 33.6592 17.7935 36.4141 17.6022 39.3689C17.4072 42.4612 18.4648 45.4833 20.5921 47.8722C22.8411 50.4003 26.0042 51.9208 29.3768 52.0949C32.8949 52.2683 36.2975 50.9874 38.9763 48.5182C43.8909 43.9814 45.0264 36.6373 41.7129 30.8193C45.6287 33.5508 49.1496 36.8122 52.1756 40.511C49.1396 44.203 39.2868 55.0485 27.916 55.0485C16.5908 55.0485 6.7146 44.1913 3.67917 40.4881C6.70294 36.796 16.5563 25.9506 27.9271 25.9506" fill="#F44336"/>
<path d="M85.961 0.0336152C79.0392 0.287232 69.8646 2.05298 63.6099 8.32908C52.5034 19.4749 55.6305 39.8967 56.1365 40.4039C56.6308 40.9005 76.9813 44.0386 88.0994 32.9044C89.8552 31.1383 91.3289 29.1109 92.4684 26.8936L88.0999 102.258C88.0538 103.043 88.7209 103.792 89.5024 103.839C90.2961 103.873 91.0432 103.204 91.0776 102.419L96.2404 12.1945C96.6769 5.95241 95.8493 1.02575 95.6077 0.772136C95.3778 0.564776 91.3537 -0.162579 85.9615 0.0330835M87.1113 3.19506C89.5946 3.1605 91.6869 3.31043 93.0094 3.42581C93.4693 8.19084 94.1592 22.8092 86.1226 30.8856C78.1088 38.9274 63.4721 38.258 58.7237 37.7965C58.2638 33.0315 57.574 18.4132 65.6222 10.3367L65.9671 9.94436C68.4243 7.69183 71.6673 6.50205 74.9928 6.63298C78.1199 6.68146 81.0923 8.00614 83.2249 10.3017C85.2144 12.4689 86.2612 15.3423 86.1337 18.2861C86.0473 20.9911 84.8885 23.5497 82.9144 25.3937C81.0426 27.083 78.5753 27.9512 76.0621 27.805C73.8117 27.6981 71.6987 26.6878 70.1984 25.0014C68.8162 23.4261 68.1205 21.3608 68.2666 19.2671C68.3976 17.4392 69.2455 15.7381 70.6243 14.5366C71.8951 13.4721 73.5428 12.9723 75.1884 13.1521C76.5781 13.2663 77.8592 13.9509 78.7292 15.0444C79.4885 15.9908 79.8446 17.2365 79.684 18.4366C79.5697 19.4063 79.0519 20.2822 78.2588 20.8478C77.6256 21.3093 76.7291 21.4821 75.9815 21.321C75.4183 21.2056 75.0617 20.9052 74.7974 20.4554C74.6363 20.1672 74.5674 19.7057 74.6824 19.417C74.7168 19.3245 74.7513 19.3245 74.7974 19.3016C75.6044 19.0317 76.0628 18.1781 75.8437 17.3532C75.6246 16.5283 74.8036 16.0169 73.9697 16.1859C72.935 16.4624 72.1529 17.1903 71.7275 18.2058C71.2498 19.4725 71.3508 20.8858 72.0035 22.0712C72.7159 23.304 73.9222 24.1697 75.315 24.4479C76.9363 24.7935 78.7292 24.4479 80.1089 23.4552C81.6088 22.3888 82.5934 20.7394 82.8228 18.9092C83.1225 16.8141 82.5532 14.6873 81.2476 13.025C79.8382 11.2392 77.7598 10.1127 75.4988 9.90927C72.9842 9.66832 70.4783 10.4498 68.5426 12.0786C66.4895 13.8266 65.2355 16.3394 65.0706 19.0363C64.8652 21.9894 65.8466 24.9022 67.7956 27.1244C69.854 29.4828 72.7803 30.899 75.901 31.0472C79.2586 31.2317 82.5928 30.0088 85.0762 27.7587C87.6941 25.3546 89.2394 21.9955 89.3646 18.4366C89.5184 14.6338 88.1572 10.9261 85.5816 8.13235C83.7499 6.14727 81.4062 4.70983 78.8103 3.9793C81.7647 3.40242 84.6279 3.21792 87.1224 3.19506" fill="#F44336"/>
</svg>
